<?xml version="1.0" encoding="UTF-8" standalone="no"?><svg xmlns="http://www.w3.org/2000/svg" xmlns:xlink="http://www.w3.org/1999/xlink" contentScriptType="application/ecmascript" contentStyleType="text/css" height="1199px" preserveAspectRatio="none" style="width:1508px;height:1199px;" version="1.1" viewBox="0 0 1508 1199" width="1508px" zoomAndPan="magnify"><defs><filter height="300%" id="f300scnkg529m" width="300%" x="-1" y="-1"><feGaussianBlur result="blurOut" stdDeviation="2.0"/><feColorMatrix in="blurOut" result="blurOut2" type="matrix" values="0 0 0 0 0 0 0 0 0 0 0 0 0 0 0 0 0 0 .4 0"/><feOffset dx="4.0" dy="4.0" in="blurOut2" result="blurOut3"/><feBlend in="SourceGraphic" in2="blurOut3" mode="normal"/></filter></defs><g><!--class NodeInterface--><rect fill="#FEFECE" filter="url(#f300scnkg529m)" height="188.8516" id="NodeInterface" style="stroke: #A80036; stroke-width: 1.5;" width="309" x="312" y="1000"/><ellipse cx="417.25" cy="1016" fill="#B4A7E5" rx="11" ry="11" style="stroke: #A80036; stroke-width: 1.0;"/><path d="M418.2031,1012.7813 L418.2031,1019.2969 L419.9219,1019.2969 C420.375,1019.2969 420.5156,1019.3281 420.6875,1019.4531 C420.9219,1019.625 421.0313,1019.875 421.0313,1020.1563 C421.0313,1020.7188 420.6719,1021 419.9219,1021 L414.7813,1021 C414.375,1021 414.1719,1020.9531 414.0156,1020.8281 C413.7969,1020.6719 413.6563,1020.4063 413.6563,1020.1563 C413.6563,1019.8594 413.8125,1019.5781 414.0625,1019.4219 C414.2188,1019.3125 414.3438,1019.2969 414.7813,1019.2969 L416.5,1019.2969 L416.5,1012.7813 L414.7813,1012.7813 C414.3594,1012.7813 414.1719,1012.75 414.0156,1012.6406 C413.7969,1012.4688 413.6563,1012.2188 413.6563,1011.9375 C413.6563,1011.6563 413.8125,1011.3594 414.0625,1011.2031 C414.2188,1011.1094 414.3438,1011.0938 414.7813,1011.0938 L419.9219,1011.0938 C420.375,1011.0938 420.5156,1011.125 420.6875,1011.2344 C420.9219,1011.4063 421.0313,1011.6719 421.0313,1011.9375 C421.0313,1012.2344 420.8906,1012.5156 420.625,1012.6719 C420.5,1012.75 420.3125,1012.7813 419.9219,1012.7813 Z "/><text fill="#000000" font-family="sans-serif" font-size="12" font-style="italic" lengthAdjust="spacingAndGlyphs" textLength="90" x="437.75" y="1020.1543">NodeInterface</text><line style="stroke: #A80036; stroke-width: 1.5;" x1="313" x2="620" y1="1032" y2="1032"/><text fill="#000000" font-family="sans-serif" font-size="11" lengthAdjust="spacingAndGlyphs" textLength="261" x="318" y="1046.2104">const DISPOSITION_FORMDATA = "form-data";</text><text fill="#000000" font-family="sans-serif" font-size="11" lengthAdjust="spacingAndGlyphs" textLength="284" x="318" y="1059.0151">const DISPOSITION_ATTACHMENT = "attachment";</text><text fill="#000000" font-family="sans-serif" font-size="11" lengthAdjust="spacingAndGlyphs" textLength="297" x="318" y="1071.8198">const HEADER_DISPOSITION = "content-disposition";</text><text fill="#000000" font-family="sans-serif" font-size="11" lengthAdjust="spacingAndGlyphs" textLength="274" x="318" y="1084.6245">const HEADER_CONTENT_TYPE = "content-type";</text><text fill="#000000" font-family="sans-serif" font-size="11" lengthAdjust="spacingAndGlyphs" textLength="174" x="318" y="1097.4292">const ATTRIB_NAME = "name";</text><text fill="#000000" font-family="sans-serif" font-size="11" lengthAdjust="spacingAndGlyphs" textLength="213" x="318" y="1110.2339">const ATTRIB_FILENAME = "filename";</text><line style="stroke: #A80036; stroke-width: 1.5;" x1="313" x2="620" y1="1116.8281" y2="1116.8281"/><ellipse cx="323" cy="1128.7305" fill="#84BE84" rx="3" ry="3" style="stroke: #038048; stroke-width: 1.0;"/><text fill="#000000" font-family="sans-serif" font-size="11" lengthAdjust="spacingAndGlyphs" textLength="65" x="332" y="1131.0386">__toString()</text><ellipse cx="323" cy="1141.5352" fill="#84BE84" rx="3" ry="3" style="stroke: #038048; stroke-width: 1.0;"/><text fill="#000000" font-family="sans-serif" font-size="11" lengthAdjust="spacingAndGlyphs" textLength="147" x="332" y="1143.8433">add(NodeInterface $node)</text><ellipse cx="323" cy="1154.3398" fill="#84BE84" rx="3" ry="3" style="stroke: #038048; stroke-width: 1.0;"/><text fill="#000000" font-family="sans-serif" font-size="11" lengthAdjust="spacingAndGlyphs" textLength="59" x="332" y="1156.6479">getName()</text><ellipse cx="323" cy="1167.1445" fill="#84BE84" rx="3" ry="3" style="stroke: #038048; stroke-width: 1.0;"/><text fill="#000000" font-family="sans-serif" font-size="11" lengthAdjust="spacingAndGlyphs" textLength="239" x="332" y="1169.4526">setContentDisposition(string $disposition)</text><ellipse cx="323" cy="1179.9492" fill="#84BE84" rx="3" ry="3" style="stroke: #038048; stroke-width: 1.0;"/><text fill="#000000" font-family="sans-serif" font-size="11" lengthAdjust="spacingAndGlyphs" textLength="66" x="332" y="1182.2573">getNested()</text><!--class StreamInterface--><rect fill="#FEFECE" filter="url(#f300scnkg529m)" height="59.207" id="StreamInterface" style="stroke: #A80036; stroke-width: 1.5;" width="134" x="446.5" y="834.5"/><ellipse cx="461.5" cy="850.5" fill="#B4A7E5" rx="11" ry="11" style="stroke: #A80036; stroke-width: 1.0;"/><path d="M462.4531,847.2813 L462.4531,853.7969 L464.1719,853.7969 C464.625,853.7969 464.7656,853.8281 464.9375,853.9531 C465.1719,854.125 465.2813,854.375 465.2813,854.6563 C465.2813,855.2188 464.9219,855.5 464.1719,855.5 L459.0313,855.5 C458.625,855.5 458.4219,855.4531 458.2656,855.3281 C458.0469,855.1719 457.9063,854.9063 457.9063,854.6563 C457.9063,854.3594 458.0625,854.0781 458.3125,853.9219 C458.4688,853.8125 458.5938,853.7969 459.0313,853.7969 L460.75,853.7969 L460.75,847.2813 L459.0313,847.2813 C458.6094,847.2813 458.4219,847.25 458.2656,847.1406 C458.0469,846.9688 457.9063,846.7188 457.9063,846.4375 C457.9063,846.1563 458.0625,845.8594 458.3125,845.7031 C458.4688,845.6094 458.5938,845.5938 459.0313,845.5938 L464.1719,845.5938 C464.625,845.5938 464.7656,845.625 464.9375,845.7344 C465.1719,845.9063 465.2813,846.1719 465.2813,846.4375 C465.2813,846.7344 465.1406,847.0156 464.875,847.1719 C464.75,847.25 464.5625,847.2813 464.1719,847.2813 Z "/><text fill="#000000" font-family="sans-serif" font-size="12" font-style="italic" lengthAdjust="spacingAndGlyphs" textLength="102" x="475.5" y="854.6543">StreamInterface</text><line style="stroke: #A80036; stroke-width: 1.5;" x1="447.5" x2="579.5" y1="866.5" y2="866.5"/><line style="stroke: #A80036; stroke-width: 1.0;" x1="447.5" x2="497" y1="880.9023" y2="880.9023"/><line style="stroke: #A80036; stroke-width: 1.0;" x1="447.5" x2="497" y1="882.9023" y2="882.9023"/><text fill="#000000" font-family="sans-serif" font-size="11" lengthAdjust="spacingAndGlyphs" textLength="33" x="497" y="884.2104">PSR-7</text><line style="stroke: #A80036; stroke-width: 1.0;" x1="530" x2="579.5" y1="880.9023" y2="880.9023"/><line style="stroke: #A80036; stroke-width: 1.0;" x1="530" x2="579.5" y1="882.9023" y2="882.9023"/><!--class RequestInterface--><rect fill="#FEFECE" filter="url(#f300scnkg529m)" height="59.207" id="RequestInterface" style="stroke: #A80036; stroke-width: 1.5;" width="140" x="227.5" y="320"/><ellipse cx="242.5" cy="336" fill="#B4A7E5" rx="11" ry="11" style="stroke: #A80036; stroke-width: 1.0;"/><path d="M243.4531,332.7813 L243.4531,339.2969 L245.1719,339.2969 C245.625,339.2969 245.7656,339.3281 245.9375,339.4531 C246.1719,339.625 246.2813,339.875 246.2813,340.1563 C246.2813,340.7188 245.9219,341 245.1719,341 L240.0313,341 C239.625,341 239.4219,340.9531 239.2656,340.8281 C239.0469,340.6719 238.9063,340.4063 238.9063,340.1563 C238.9063,339.8594 239.0625,339.5781 239.3125,339.4219 C239.4688,339.3125 239.5938,339.2969 240.0313,339.2969 L241.75,339.2969 L241.75,332.7813 L240.0313,332.7813 C239.6094,332.7813 239.4219,332.75 239.2656,332.6406 C239.0469,332.4688 238.9063,332.2188 238.9063,331.9375 C238.9063,331.6563 239.0625,331.3594 239.3125,331.2031 C239.4688,331.1094 239.5938,331.0938 240.0313,331.0938 L245.1719,331.0938 C245.625,331.0938 245.7656,331.125 245.9375,331.2344 C246.1719,331.4063 246.2813,331.6719 246.2813,331.9375 C246.2813,332.2344 246.1406,332.5156 245.875,332.6719 C245.75,332.75 245.5625,332.7813 245.1719,332.7813 Z "/><text fill="#000000" font-family="sans-serif" font-size="12" font-style="italic" lengthAdjust="spacingAndGlyphs" textLength="108" x="256.5" y="340.1543">RequestInterface</text><line style="stroke: #A80036; stroke-width: 1.5;" x1="228.5" x2="366.5" y1="352" y2="352"/><line style="stroke: #A80036; stroke-width: 1.0;" x1="228.5" x2="281" y1="366.4023" y2="366.4023"/><line style="stroke: #A80036; stroke-width: 1.0;" x1="228.5" x2="281" y1="368.4023" y2="368.4023"/><text fill="#000000" font-family="sans-serif" font-size="11" lengthAdjust="spacingAndGlyphs" textLength="33" x="281" y="369.7104">PSR-7</text><line style="stroke: #A80036; stroke-width: 1.0;" x1="314" x2="366.5" y1="366.4023" y2="366.4023"/><line style="stroke: #A80036; stroke-width: 1.0;" x1="314" x2="366.5" y1="368.4023" y2="368.4023"/><!--class AbstractNode--><rect fill="#FEFECE" filter="url(#f300scnkg529m)" height="150.4375" id="AbstractNode" style="stroke: #A80036; stroke-width: 1.5;" width="265" x="692" y="789"/><ellipse cx="777.75" cy="805" fill="#A9DCDF" rx="11" ry="11" style="stroke: #A80036; stroke-width: 1.0;"/><path d="M779.3281,806.8125 L775.2813,806.8125 L774.8906,807.7969 L775.2813,807.7969 C775.7344,807.7969 775.875,807.8281 776.0469,807.9531 C776.2656,808.125 776.3906,808.375 776.3906,808.6563 C776.3906,808.9375 776.25,809.2344 775.9844,809.375 C775.8594,809.4688 775.6406,809.5 775.2813,809.5 L773.0156,809.5 C772.2656,809.5 771.8906,809.2188 771.8906,808.6563 C771.8906,808.3594 772.0469,808.0781 772.2969,807.9219 C772.4531,807.8125 772.6094,807.7969 773.0313,807.7969 L775.6719,801.2813 L774.5938,801.2813 C774.1563,801.2813 773.9844,801.25 773.8125,801.1406 C773.5938,800.9688 773.4531,800.7188 773.4531,800.4375 C773.4531,800.1563 773.6094,799.875 773.8594,799.7031 C774.0156,799.6094 774.1406,799.5938 774.5938,799.5938 L778.2656,799.5938 L781.6563,807.7969 C782.125,807.7969 782.2813,807.8281 782.4531,807.9688 C782.6719,808.125 782.8125,808.375 782.8125,808.6563 C782.8125,808.9375 782.6563,809.2344 782.4063,809.375 C782.2656,809.4688 782.0469,809.5 781.6875,809.5 L779.3281,809.5 C778.9063,809.5 778.7031,809.4531 778.5625,809.3281 C778.3438,809.1719 778.2031,808.9219 778.2031,808.6563 C778.2031,808.3594 778.3594,808.0781 778.6094,807.9219 C778.7656,807.8125 778.875,807.7969 779.3281,807.7969 L779.7188,807.7969 Z M778.625,805.1094 L777.2969,801.8438 L775.9531,805.1094 Z "/><text fill="#000000" font-family="sans-serif" font-size="12" font-style="italic" lengthAdjust="spacingAndGlyphs" textLength="85" x="798.25" y="809.1543">AbstractNode</text><line style="stroke: #A80036; stroke-width: 1.5;" x1="693" x2="956" y1="821" y2="821"/><polygon fill="none" points="703,827.9023,707,831.9023,703,835.9023,699,831.9023" style="stroke: #B38D22; stroke-width: 1.0;"/><text fill="#000000" font-family="sans-serif" font-size="11" lengthAdjust="spacingAndGlyphs" textLength="43" x="712" y="835.2104">$name;</text><polygon fill="none" points="703,840.707,707,844.707,703,848.707,699,844.707" style="stroke: #B38D22; stroke-width: 1.0;"/><text fill="#000000" font-family="sans-serif" font-size="11" lengthAdjust="spacingAndGlyphs" textLength="139" x="712" y="848.0151">$contentDisposition = '';</text><line style="stroke: #A80036; stroke-width: 1.5;" x1="693" x2="956" y1="854.6094" y2="854.6094"/><ellipse cx="703" cy="866.5117" fill="#84BE84" rx="3" ry="3" style="stroke: #038048; stroke-width: 1.0;"/><text fill="#000000" font-family="sans-serif" font-size="11" lengthAdjust="spacingAndGlyphs" textLength="65" x="712" y="868.8198">__toString()</text><ellipse cx="703" cy="879.3164" fill="#84BE84" rx="3" ry="3" style="stroke: #038048; stroke-width: 1.0;"/><text fill="#000000" font-family="sans-serif" font-size="11" lengthAdjust="spacingAndGlyphs" textLength="147" x="712" y="881.6245">add(NodeInterface $node)</text><ellipse cx="703" cy="892.1211" fill="#84BE84" rx="3" ry="3" style="stroke: #038048; stroke-width: 1.0;"/><text fill="#000000" font-family="sans-serif" font-size="11" lengthAdjust="spacingAndGlyphs" textLength="59" x="712" y="894.4292">getName()</text><ellipse cx="703" cy="904.9258" fill="#84BE84" rx="3" ry="3" style="stroke: #038048; stroke-width: 1.0;"/><text fill="#000000" font-family="sans-serif" font-size="11" lengthAdjust="spacingAndGlyphs" textLength="239" x="712" y="907.2339">setContentDisposition(string $disposition)</text><ellipse cx="703" cy="917.7305" fill="#84BE84" rx="3" ry="3" style="stroke: #038048; stroke-width: 1.0;"/><text fill="#000000" font-family="sans-serif" font-size="11" lengthAdjust="spacingAndGlyphs" textLength="66" x="712" y="920.0386">getNested()</text><rect fill="#F24D5C" height="6" style="stroke: #C82930; stroke-width: 1.0;" width="6" x="700" y="927.5352"/><text fill="#000000" font-family="sans-serif" font-size="11" lengthAdjust="spacingAndGlyphs" textLength="133" x="712" y="932.8433">getContentDisposition()</text><!--class Envelope--><rect fill="#FEFECE" filter="url(#f300scnkg529m)" height="252.875" id="Envelope" style="stroke: #A80036; stroke-width: 1.5;" width="385" x="6" y="506"/><ellipse cx="165.75" cy="522" fill="#ADD1B2" rx="11" ry="11" style="stroke: #A80036; stroke-width: 1.0;"/><path d="M168.0938,517.6719 L168.2656,517.75 C168.4844,517.4375 168.6875,517.3438 168.9844,517.3438 C169.2813,517.3438 169.5625,517.4844 169.7188,517.75 C169.8125,517.9063 169.8281,518.0313 169.8281,518.4688 L169.8281,519.8906 C169.8281,520.3125 169.7969,520.5 169.6875,520.6563 C169.5156,520.875 169.25,521.0156 168.9844,521.0156 C168.7656,521.0156 168.5313,520.9063 168.3906,520.7656 C168.25,520.6406 168.2188,520.5156 168.1563,520.1094 C168.0625,519.7031 167.8906,519.4844 167.4063,519.2031 C166.9375,518.9531 166.3281,518.7969 165.75,518.7969 C164.0156,518.7969 162.7656,520.1094 162.7656,521.8906 L162.7656,522.9844 C162.7656,524.6875 164.0625,525.7813 166.1094,525.7813 C166.875,525.7813 167.5625,525.6563 167.9844,525.3906 C168.1719,525.2969 168.1719,525.2969 168.625,524.8125 C168.8125,524.625 169.0156,524.5469 169.2344,524.5469 C169.7031,524.5469 170.0938,524.9375 170.0938,525.3906 C170.0938,525.7813 169.7656,526.2344 169.1875,526.6406 C168.4375,527.1875 167.2813,527.4844 166.0625,527.4844 C163.1719,527.4844 161.0625,525.5938 161.0625,523.0156 L161.0625,521.8906 C161.0625,519.1719 163.0625,517.0938 165.6875,517.0938 C166.5625,517.0938 167.1563,517.2344 168.0938,517.6719 Z "/><text fill="#000000" font-family="sans-serif" font-size="12" lengthAdjust="spacingAndGlyphs" textLength="57" x="186.25" y="526.1543">Envelope</text><line style="stroke: #A80036; stroke-width: 1.5;" x1="7" x2="390" y1="538" y2="538"/><text fill="#000000" font-family="sans-serif" font-size="11" lengthAdjust="spacingAndGlyphs" textLength="273" x="12" y="552.2104">const TYPE_FORM_DATA = 'multipart/form-data';</text><text fill="#000000" font-family="sans-serif" font-size="11" lengthAdjust="spacingAndGlyphs" textLength="219" x="12" y="565.0151">const TYPE_MIXED = 'multipart/mixed';</text><text fill="#000000" font-family="sans-serif" font-size="11" lengthAdjust="spacingAndGlyphs" textLength="226" x="12" y="577.8198">const ATTRIB_BOUNDARY = "boundary";</text><line style="stroke: #A80036; stroke-width: 1.5;" x1="7" x2="390" y1="584.4141" y2="584.4141"/><text fill="#000000" font-family="sans-serif" font-size="11" lengthAdjust="spacingAndGlyphs" textLength="312" x="26" y="598.6245">__construct(string $name, string $type='', $items = [])</text><ellipse cx="17" cy="609.1211" fill="#84BE84" rx="3" ry="3" style="stroke: #038048; stroke-width: 1.0;"/><text fill="#000000" font-family="sans-serif" font-size="11" lengthAdjust="spacingAndGlyphs" textLength="65" x="26" y="611.4292">__toString()</text><ellipse cx="17" cy="621.9258" fill="#84BE84" rx="3" ry="3" style="stroke: #038048; stroke-width: 1.0;"/><text fill="#000000" font-family="sans-serif" font-size="11" lengthAdjust="spacingAndGlyphs" textLength="147" x="26" y="624.2339">add(NodeInterface $node)</text><ellipse cx="17" cy="634.7305" fill="#84BE84" rx="3" ry="3" style="stroke: #038048; stroke-width: 1.0;"/><text fill="#000000" font-family="sans-serif" font-size="11" lengthAdjust="spacingAndGlyphs" textLength="59" x="26" y="637.0386">getName()</text><ellipse cx="17" cy="647.5352" fill="#84BE84" rx="3" ry="3" style="stroke: #038048; stroke-width: 1.0;"/><text fill="#000000" font-family="sans-serif" font-size="11" lengthAdjust="spacingAndGlyphs" textLength="239" x="26" y="649.8433">setContentDisposition(string $disposition)</text><ellipse cx="17" cy="660.3398" fill="#84BE84" rx="3" ry="3" style="stroke: #038048; stroke-width: 1.0;"/><text fill="#000000" font-family="sans-serif" font-size="11" lengthAdjust="spacingAndGlyphs" textLength="66" x="26" y="662.6479">getNested()</text><text fill="#000000" font-family="sans-serif" font-size="11" lengthAdjust="spacingAndGlyphs" textLength="0" x="30" y="675.4526"/><rect fill="#F24D5C" height="6" style="stroke: #C82930; stroke-width: 1.0;" width="6" x="14" y="682.9492"/><text fill="#000000" font-family="sans-serif" font-size="11" lengthAdjust="spacingAndGlyphs" textLength="81" x="26" y="688.2573">exists($name)</text><rect fill="#F24D5C" height="6" style="stroke: #C82930; stroke-width: 1.0;" width="6" x="14" y="695.7539"/><text fill="#000000" font-family="sans-serif" font-size="11" lengthAdjust="spacingAndGlyphs" textLength="58" x="26" y="701.062">getPrefix()</text><rect fill="#F24D5C" height="6" style="stroke: #C82930; stroke-width: 1.0;" width="6" x="14" y="708.5586"/><text fill="#000000" font-family="sans-serif" font-size="11" lengthAdjust="spacingAndGlyphs" textLength="58" x="26" y="713.8667">getItems()</text><rect fill="#F24D5C" height="6" style="stroke: #C82930; stroke-width: 1.0;" width="6" x="14" y="721.3633"/><text fill="#000000" font-family="sans-serif" font-size="11" lengthAdjust="spacingAndGlyphs" textLength="106" x="26" y="726.6714">getItemsAsString()</text><rect fill="#F24D5C" height="6" style="stroke: #C82930; stroke-width: 1.0;" width="6" x="14" y="734.168"/><text fill="#000000" font-family="sans-serif" font-size="11" lengthAdjust="spacingAndGlyphs" textLength="117" x="26" y="739.4761">getItemString($item)</text><rect fill="#F24D5C" height="6" style="stroke: #C82930; stroke-width: 1.0;" width="6" x="14" y="746.9727"/><text fill="#000000" font-family="sans-serif" font-size="11" lengthAdjust="spacingAndGlyphs" textLength="359" x="26" y="752.2808">fixNodeContentDisposition(NodeInterface $node, string $name)</text><!--class Attachment--><rect fill="#FEFECE" filter="url(#f300scnkg529m)" height="252.875" id="Attachment" style="stroke: #A80036; stroke-width: 1.5;" width="640" x="504.5" y="223"/><ellipse cx="783.75" cy="239" fill="#ADD1B2" rx="11" ry="11" style="stroke: #A80036; stroke-width: 1.0;"/><path d="M786.0938,234.6719 L786.2656,234.75 C786.4844,234.4375 786.6875,234.3438 786.9844,234.3438 C787.2813,234.3438 787.5625,234.4844 787.7188,234.75 C787.8125,234.9063 787.8281,235.0313 787.8281,235.4688 L787.8281,236.8906 C787.8281,237.3125 787.7969,237.5 787.6875,237.6563 C787.5156,237.875 787.25,238.0156 786.9844,238.0156 C786.7656,238.0156 786.5313,237.9063 786.3906,237.7656 C786.25,237.6406 786.2188,237.5156 786.1563,237.1094 C786.0625,236.7031 785.8906,236.4844 785.4063,236.2031 C784.9375,235.9531 784.3281,235.7969 783.75,235.7969 C782.0156,235.7969 780.7656,237.1094 780.7656,238.8906 L780.7656,239.9844 C780.7656,241.6875 782.0625,242.7813 784.1094,242.7813 C784.875,242.7813 785.5625,242.6563 785.9844,242.3906 C786.1719,242.2969 786.1719,242.2969 786.625,241.8125 C786.8125,241.625 787.0156,241.5469 787.2344,241.5469 C787.7031,241.5469 788.0938,241.9375 788.0938,242.3906 C788.0938,242.7813 787.7656,243.2344 787.1875,243.6406 C786.4375,244.1875 785.2813,244.4844 784.0625,244.4844 C781.1719,244.4844 779.0625,242.5938 779.0625,240.0156 L779.0625,238.8906 C779.0625,236.1719 781.0625,234.0938 783.6875,234.0938 C784.5625,234.0938 785.1563,234.2344 786.0938,234.6719 Z "/><text fill="#000000" font-family="sans-serif" font-size="12" lengthAdjust="spacingAndGlyphs" textLength="73" x="804.25" y="243.1543">Attachment</text><line style="stroke: #A80036; stroke-width: 1.5;" x1="505.5" x2="1143.5" y1="255" y2="255"/><rect fill="none" height="6" style="stroke: #C82930; stroke-width: 1.0;" width="6" x="512.5" y="263.9023"/><text fill="#000000" font-family="sans-serif" font-size="11" lengthAdjust="spacingAndGlyphs" textLength="83" x="524.5" y="269.2104">$filename = '';</text><rect fill="none" height="6" style="stroke: #C82930; stroke-width: 1.0;" width="6" x="512.5" y="276.707"/><text fill="#000000" font-family="sans-serif" font-size="11" lengthAdjust="spacingAndGlyphs" textLength="52" x="524.5" y="282.0151">$stream;</text><rect fill="none" height="6" style="stroke: #C82930; stroke-width: 1.0;" width="6" x="512.5" y="289.5117"/><text fill="#000000" font-family="sans-serif" font-size="11" lengthAdjust="spacingAndGlyphs" textLength="66" x="524.5" y="294.8198">$mime = '';</text><rect fill="none" height="6" style="stroke: #C82930; stroke-width: 1.0;" width="6" x="512.5" y="302.3164"/><text fill="#000000" font-family="sans-serif" font-size="11" lengthAdjust="spacingAndGlyphs" textLength="73" x="524.5" y="307.6245">$disposition;</text><text fill="#000000" font-family="sans-serif" font-size="11" lengthAdjust="spacingAndGlyphs" textLength="0" x="528.5" y="320.4292"/><text fill="#000000" font-family="sans-serif" font-size="11" lengthAdjust="spacingAndGlyphs" textLength="287" x="524.5" y="333.2339">const DEFAULT_MIME = "application/octet-stream";</text><text fill="#000000" font-family="sans-serif" font-size="11" lengthAdjust="spacingAndGlyphs" textLength="373" x="524.5" y="346.0386">const BINARY_ENCODING = "content-transfer-encoding: binary\n";</text><line style="stroke: #A80036; stroke-width: 1.5;" x1="505.5" x2="1143.5" y1="352.6328" y2="352.6328"/><text fill="#000000" font-family="sans-serif" font-size="11" lengthAdjust="spacingAndGlyphs" textLength="614" x="524.5" y="366.8433">__construct(string $filename, string $name, StreamInterface $data, string $mime='', string $disposition='')</text><ellipse cx="515.5" cy="377.3398" fill="#84BE84" rx="3" ry="3" style="stroke: #038048; stroke-width: 1.0;"/><text fill="#000000" font-family="sans-serif" font-size="11" lengthAdjust="spacingAndGlyphs" textLength="65" x="524.5" y="379.6479">__toString()</text><ellipse cx="515.5" cy="390.1445" fill="#84BE84" rx="3" ry="3" style="stroke: #038048; stroke-width: 1.0;"/><text fill="#000000" font-family="sans-serif" font-size="11" lengthAdjust="spacingAndGlyphs" textLength="66" x="524.5" y="392.4526">getNested()</text><rect fill="#F24D5C" height="6" style="stroke: #C82930; stroke-width: 1.0;" width="6" x="512.5" y="399.9492"/><text fill="#000000" font-family="sans-serif" font-size="11" lengthAdjust="spacingAndGlyphs" textLength="81" x="524.5" y="405.2573">headerName()</text><rect fill="#F24D5C" height="6" style="stroke: #C82930; stroke-width: 1.0;" width="6" x="512.5" y="412.7539"/><text fill="#000000" font-family="sans-serif" font-size="11" lengthAdjust="spacingAndGlyphs" textLength="56" x="524.5" y="418.062">getMime()</text><rect fill="#F24D5C" height="6" style="stroke: #C82930; stroke-width: 1.0;" width="6" x="512.5" y="425.5586"/><text fill="#000000" font-family="sans-serif" font-size="11" lengthAdjust="spacingAndGlyphs" textLength="201" x="524.5" y="430.8667">isBinaryByMime(string $mimeType)</text><rect fill="#F24D5C" height="6" style="stroke: #C82930; stroke-width: 1.0;" width="6" x="512.5" y="438.3633"/><text fill="#000000" font-family="sans-serif" font-size="11" lengthAdjust="spacingAndGlyphs" textLength="101" x="524.5" y="443.6714">contentEncoding()</text><rect fill="#F24D5C" height="6" style="stroke: #C82930; stroke-width: 1.0;" width="6" x="512.5" y="451.168"/><text fill="#000000" font-family="sans-serif" font-size="11" lengthAdjust="spacingAndGlyphs" textLength="77" x="524.5" y="456.4761">getContents()</text><rect fill="#F24D5C" height="6" style="stroke: #C82930; stroke-width: 1.0;" width="6" x="512.5" y="463.9727"/><text fill="#000000" font-family="sans-serif" font-size="11" lengthAdjust="spacingAndGlyphs" textLength="137" x="524.5" y="469.2808">ifBlank($value, $default)</text><!--class FormInput--><rect fill="#FEFECE" filter="url(#f300scnkg529m)" height="99.2188" id="FormInput" style="stroke: #A80036; stroke-width: 1.5;" width="183" x="1180" y="300"/><ellipse cx="1235.75" cy="316" fill="#ADD1B2" rx="11" ry="11" style="stroke: #A80036; stroke-width: 1.0;"/><path d="M1238.0938,311.6719 L1238.2656,311.75 C1238.4844,311.4375 1238.6875,311.3438 1238.9844,311.3438 C1239.2813,311.3438 1239.5625,311.4844 1239.7188,311.75 C1239.8125,311.9063 1239.8281,312.0313 1239.8281,312.4688 L1239.8281,313.8906 C1239.8281,314.3125 1239.7969,314.5 1239.6875,314.6563 C1239.5156,314.875 1239.25,315.0156 1238.9844,315.0156 C1238.7656,315.0156 1238.5313,314.9063 1238.3906,314.7656 C1238.25,314.6406 1238.2188,314.5156 1238.1563,314.1094 C1238.0625,313.7031 1237.8906,313.4844 1237.4063,313.2031 C1236.9375,312.9531 1236.3281,312.7969 1235.75,312.7969 C1234.0156,312.7969 1232.7656,314.1094 1232.7656,315.8906 L1232.7656,316.9844 C1232.7656,318.6875 1234.0625,319.7813 1236.1094,319.7813 C1236.875,319.7813 1237.5625,319.6563 1237.9844,319.3906 C1238.1719,319.2969 1238.1719,319.2969 1238.625,318.8125 C1238.8125,318.625 1239.0156,318.5469 1239.2344,318.5469 C1239.7031,318.5469 1240.0938,318.9375 1240.0938,319.3906 C1240.0938,319.7813 1239.7656,320.2344 1239.1875,320.6406 C1238.4375,321.1875 1237.2813,321.4844 1236.0625,321.4844 C1233.1719,321.4844 1231.0625,319.5938 1231.0625,317.0156 L1231.0625,315.8906 C1231.0625,313.1719 1233.0625,311.0938 1235.6875,311.0938 C1236.5625,311.0938 1237.1563,311.2344 1238.0938,311.6719 Z "/><text fill="#000000" font-family="sans-serif" font-size="12" lengthAdjust="spacingAndGlyphs" textLength="63" x="1256.25" y="320.1543">FormInput</text><line style="stroke: #A80036; stroke-width: 1.5;" x1="1181" x2="1362" y1="332" y2="332"/><rect fill="none" height="6" style="stroke: #C82930; stroke-width: 1.0;" width="6" x="1188" y="340.9023"/><text fill="#000000" font-family="sans-serif" font-size="11" lengthAdjust="spacingAndGlyphs" textLength="37" x="1200" y="346.2104">$value</text><line style="stroke: #A80036; stroke-width: 1.5;" x1="1181" x2="1362" y1="352.8047" y2="352.8047"/><text fill="#000000" font-family="sans-serif" font-size="11" lengthAdjust="spacingAndGlyphs" textLength="157" x="1200" y="367.0151">__construct($name, $value)</text><ellipse cx="1191" cy="377.5117" fill="#84BE84" rx="3" ry="3" style="stroke: #038048; stroke-width: 1.0;"/><text fill="#000000" font-family="sans-serif" font-size="11" lengthAdjust="spacingAndGlyphs" textLength="65" x="1200" y="379.8198">__toString()</text><ellipse cx="1191" cy="390.3164" fill="#84BE84" rx="3" ry="3" style="stroke: #038048; stroke-width: 1.0;"/><text fill="#000000" font-family="sans-serif" font-size="11" lengthAdjust="spacingAndGlyphs" textLength="66" x="1200" y="392.6245">getNested()</text><!--class stream_for--><rect fill="#FEFECE" filter="url(#f300scnkg529m)" height="48" id="stream_for" style="stroke: #A80036; stroke-width: 1.5;" width="99" x="1398" y="325.5"/><ellipse cx="1413" cy="341.5" fill="#E3664A" rx="11" ry="11" style="stroke: #A80036; stroke-width: 1.0;"/><path d="M1414.9219,338.75 L1414.9219,338.2031 C1414.9219,337.0781 1414.1875,336.2969 1413.1406,336.2969 C1411.7031,336.2969 1410.6406,337.9375 1410.6406,340.1094 L1410.6406,342.7656 C1410.6406,344.0625 1410.9219,345.1094 1411.5,345.9063 C1411.9063,346.5 1412.4375,346.7656 1413.1875,346.7656 C1413.9375,346.7656 1414.6094,346.5469 1414.9375,346.2188 C1415.1719,345.9688 1415.2656,345.9219 1415.4688,345.9219 C1415.8438,345.9219 1416.1406,346.2344 1416.1406,346.625 C1416.1406,347.4219 1414.75,348.0781 1413.1406,348.0781 C1411.7344,348.0781 1410.8125,347.5156 1410.0938,346.2656 C1409.5781,345.3438 1409.2969,344.125 1409.2969,342.875 L1409.2969,340.0156 C1409.2969,337.0781 1410.9063,334.9531 1413.1094,334.9531 C1414.9531,334.9531 1416.2656,336.3125 1416.2656,338.2031 L1416.2656,342.9844 C1416.5313,343.1094 1416.6563,343.2969 1416.6563,343.5781 C1416.6563,344.0625 1416.3438,344.2813 1415.7188,344.2813 L1414.9219,344.2813 L1414.9219,344.2188 C1414.6563,344.2656 1414.5156,344.2813 1414.3594,344.2813 C1412.9063,344.2813 1411.7031,343.0625 1411.7031,341.6563 C1411.7031,340.0781 1413.0156,338.8906 1414.9219,338.75 Z M1414.9219,342.8594 L1414.9219,340.125 C1413.7969,340.2344 1413.0469,340.8438 1413.0469,341.6719 C1413.0469,342.375 1413.6563,342.9063 1414.4844,342.9063 C1414.5938,342.9063 1414.6875,342.9063 1414.9219,342.8594 Z "/><text fill="#000000" font-family="sans-serif" font-size="12" lengthAdjust="spacingAndGlyphs" textLength="67" x="1427" y="345.6543">stream_for</text><line style="stroke: #A80036; stroke-width: 1.5;" x1="1399" x2="1496" y1="357.5" y2="357.5"/><line style="stroke: #A80036; stroke-width: 1.5;" x1="1399" x2="1496" y1="365.5" y2="365.5"/><!--class FormBody--><rect fill="#FEFECE" filter="url(#f300scnkg529m)" height="137.6328" id="FormBody" style="stroke: #A80036; stroke-width: 1.5;" width="549" x="274" y="8"/><ellipse cx="513.75" cy="24" fill="#ADD1B2" rx="11" ry="11" style="stroke: #A80036; stroke-width: 1.0;"/><path d="M516.0938,19.6719 L516.2656,19.75 C516.4844,19.4375 516.6875,19.3438 516.9844,19.3438 C517.2813,19.3438 517.5625,19.4844 517.7188,19.75 C517.8125,19.9063 517.8281,20.0313 517.8281,20.4688 L517.8281,21.8906 C517.8281,22.3125 517.7969,22.5 517.6875,22.6563 C517.5156,22.875 517.25,23.0156 516.9844,23.0156 C516.7656,23.0156 516.5313,22.9063 516.3906,22.7656 C516.25,22.6406 516.2188,22.5156 516.1563,22.1094 C516.0625,21.7031 515.8906,21.4844 515.4063,21.2031 C514.9375,20.9531 514.3281,20.7969 513.75,20.7969 C512.0156,20.7969 510.7656,22.1094 510.7656,23.8906 L510.7656,24.9844 C510.7656,26.6875 512.0625,27.7813 514.1094,27.7813 C514.875,27.7813 515.5625,27.6563 515.9844,27.3906 C516.1719,27.2969 516.1719,27.2969 516.625,26.8125 C516.8125,26.625 517.0156,26.5469 517.2344,26.5469 C517.7031,26.5469 518.0938,26.9375 518.0938,27.3906 C518.0938,27.7813 517.7656,28.2344 517.1875,28.6406 C516.4375,29.1875 515.2813,29.4844 514.0625,29.4844 C511.1719,29.4844 509.0625,27.5938 509.0625,25.0156 L509.0625,23.8906 C509.0625,21.1719 511.0625,19.0938 513.6875,19.0938 C514.5625,19.0938 515.1563,19.2344 516.0938,19.6719 Z "/><text fill="#000000" font-family="sans-serif" font-size="12" lengthAdjust="spacingAndGlyphs" textLength="61" x="534.25" y="28.1543">FormBody</text><line style="stroke: #A80036; stroke-width: 1.5;" x1="275" x2="822" y1="40" y2="40"/><rect fill="none" height="6" style="stroke: #C82930; stroke-width: 1.0;" width="6" x="282" y="48.9023"/><text fill="#000000" font-family="sans-serif" font-size="11" lengthAdjust="spacingAndGlyphs" textLength="40" x="294" y="54.2104">$state;</text><text fill="#000000" font-family="sans-serif" font-size="11" lengthAdjust="spacingAndGlyphs" textLength="180" x="294" y="67.0151">const HTTP_METHOD = "POST";</text><line style="stroke: #A80036; stroke-width: 1.5;" x1="275" x2="822" y1="73.6094" y2="73.6094"/><text fill="#000000" font-family="sans-serif" font-size="11" lengthAdjust="spacingAndGlyphs" textLength="195" x="294" y="87.8198">__construct(Envelope $initialState)</text><ellipse cx="285" cy="98.3164" fill="#84BE84" rx="3" ry="3" style="stroke: #038048; stroke-width: 1.0;"/><text fill="#000000" font-family="sans-serif" font-size="11" lengthAdjust="spacingAndGlyphs" textLength="523" x="294" y="100.6245">addAttachment(string $name, StreamInterface $value, string $mimeType, string $fileName)</text><ellipse cx="285" cy="111.1211" fill="#84BE84" rx="3" ry="3" style="stroke: #038048; stroke-width: 1.0;"/><text fill="#000000" font-family="sans-serif" font-size="11" lengthAdjust="spacingAndGlyphs" textLength="244" x="294" y="113.4292">addFormInput(string $name, string $value)</text><ellipse cx="285" cy="123.9258" fill="#84BE84" rx="3" ry="3" style="stroke: #038048; stroke-width: 1.0;"/><text fill="#000000" font-family="sans-serif" font-size="11" lengthAdjust="spacingAndGlyphs" textLength="65" x="294" y="126.2339">__toString()</text><ellipse cx="285" cy="136.7305" fill="#84BE84" rx="3" ry="3" style="stroke: #038048; stroke-width: 1.0;"/><text fill="#000000" font-family="sans-serif" font-size="11" lengthAdjust="spacingAndGlyphs" textLength="198" x="294" y="139.0386">submit(RequestInterface $request)</text><!--link AbstractNode to NodeInterface--><path d="M691.316,950.007 C665.853,966.259 639.064,983.358 613.205,999.863 " fill="none" id="AbstractNode-NodeInterface" style="stroke: #A80036; stroke-width: 1.0;"/><polygon fill="none" points="687.643,944.047,708.268,939.187,695.175,955.848,687.643,944.047" style="stroke: #A80036; stroke-width: 1.0;"/><!--link Envelope to NodeInterface--><path d="M282.027,776.867 C324.341,849.496 374.519,935.622 411.852,999.702 " fill="none" id="Envelope-NodeInterface" style="stroke: #A80036; stroke-width: 1.0;"/><polygon fill="none" points="275.752,780.002,271.732,759.197,287.849,772.954,275.752,780.002" style="stroke: #A80036; stroke-width: 1.0;"/><!--link Attachment to AbstractNode--><path d="M824.5,496.477 C824.5,591.975 824.5,712.722 824.5,788.936 " fill="none" id="Attachment-AbstractNode" style="stroke: #A80036; stroke-width: 1.0;"/><polygon fill="none" points="817.5,496.2,824.5,476.2,831.5,496.2,817.5,496.2" style="stroke: #A80036; stroke-width: 1.0;"/><!--link Attachment to StreamInterface--><path d="M748.222,476.2 C679.483,589.475 582.564,749.189 537.848,822.877 " fill="none" id="Attachment-StreamInterface" style="stroke: #A80036; stroke-width: 1.0;"/><polygon fill="#FFFFFF" points="530.879,834.361,537.4113,831.3066,537.1043,824.102,530.572,827.1564,530.879,834.361" style="stroke: #A80036; stroke-width: 1.0;"/><!--link FormInput to AbstractNode--><path d="M1215.89,414.259 C1132.92,509.384 977.099,688.04 889.163,788.862 " fill="none" id="FormInput-AbstractNode" style="stroke: #A80036; stroke-width: 1.0;"/><polygon fill="none" points="1210.62,409.648,1229.04,399.177,1221.17,418.85,1210.62,409.648" style="stroke: #A80036; stroke-width: 1.0;"/><!--link FormBody to FormInput--><path d="M823.244,106.01 C934.229,126.46 1059.83,161.82 1161.5,223 C1186.97,238.326 1209.69,261.525 1227.78,283.825 " fill="none" id="FormBody-FormInput" style="stroke: #A80036; stroke-width: 1.0; stroke-dasharray: 7.0,7.0;"/><polygon fill="none" points="1233.42,279.672,1240.1,299.779,1222.34,288.23,1233.42,279.672" style="stroke: #A80036; stroke-width: 1.0;"/><text fill="#000000" font-family="sans-serif" font-size="13" lengthAdjust="spacingAndGlyphs" textLength="30" x="1103.5" y="189.0669">uses</text><!--link FormBody to Attachment--><path d="M618.146,146.26 C637.665,165.39 659.625,186.91 681.747,208.592 " fill="none" id="FormBody-Attachment" style="stroke: #A80036; stroke-width: 1.0; stroke-dasharray: 7.0,7.0;"/><polygon fill="none" points="686.9,203.841,696.284,222.839,677.101,213.839,686.9,203.841" style="stroke: #A80036; stroke-width: 1.0;"/><text fill="#000000" font-family="sans-serif" font-size="13" lengthAdjust="spacingAndGlyphs" textLength="30" x="663.5" y="189.0669">uses</text><!--link FormBody to Envelope--><path d="M296.266,146.01 C262.177,165.56 231.444,190.702 209.5,223 C158.064,298.707 155.676,401.853 165.964,485.556 " fill="none" id="FormBody-Envelope" style="stroke: #A80036; stroke-width: 1.0; stroke-dasharray: 7.0,7.0;"/><polygon fill="none" points="172.926,484.797,168.706,505.562,159.055,486.698,172.926,484.797" style="stroke: #A80036; stroke-width: 1.0;"/><text fill="#000000" font-family="sans-serif" font-size="13" lengthAdjust="spacingAndGlyphs" textLength="30" x="253.5" y="189.0669">uses</text><!--link FormBody to StreamInterface--><path d="M492.823,146.22 C477.297,169.22 462.499,195.958 454.5,223 C391.236,436.888 462.744,706.968 497.125,815.075 " fill="none" id="FormBody-StreamInterface" style="stroke: #A80036; stroke-width: 1.0; stroke-dasharray: 7.0,7.0;"/><polygon fill="none" points="503.812,813.002,503.36,834.186,490.502,817.344,503.812,813.002" style="stroke: #A80036; stroke-width: 1.0;"/><text fill="#000000" font-family="sans-serif" font-size="13" lengthAdjust="spacingAndGlyphs" textLength="30" x="455.5" y="354.0669">uses</text><!--link FormBody to RequestInterface--><path d="M413.146,146.04 C400.977,155.16 389.497,165.15 379.5,176 C346.512,211.801 324.392,263.272 311.523,300.666 " fill="none" id="FormBody-RequestInterface" style="stroke: #A80036; stroke-width: 1.0; stroke-dasharray: 7.0,7.0;"/><polygon fill="none" points="318.145,302.939,305.316,319.803,304.828,298.619,318.145,302.939" style="stroke: #A80036; stroke-width: 1.0;"/><text fill="#000000" font-family="sans-serif" font-size="13" lengthAdjust="spacingAndGlyphs" textLength="30" x="380.5" y="189.0669">uses</text><!--link FormBody to stream_for--><path d="M823.09,99.34 C1030.43,120.26 1293.58,158.6 1380.5,223 C1407.99,243.371 1425.35,278.446 1435.49,306.346 " fill="none" id="FormBody-stream_for" style="stroke: #A80036; stroke-width: 1.0; stroke-dasharray: 7.0,7.0;"/><polygon fill="none" points="1442.19,304.314,1441.76,325.5,1428.89,308.672,1442.19,304.314" style="stroke: #A80036; stroke-width: 1.0;"/><text fill="#000000" font-family="sans-serif" font-size="13" lengthAdjust="spacingAndGlyphs" textLength="30" x="1322.5" y="189.0669">uses</text><!--
@startuml
interface NodeInterface {
    const DISPOSITION_FORMDATA = "form-data";
    const DISPOSITION_ATTACHMENT = "attachment";
    const HEADER_DISPOSITION = "content-disposition";
    const HEADER_CONTENT_TYPE = "content-type";
    const ATTRIB_NAME = "name";
    const ATTRIB_FILENAME = "filename";

    +__toString()
    +add(NodeInterface $node)
    +getName()
    +setContentDisposition(string $disposition)
    +getNested()
}

interface StreamInterface {
==PSR-7==
}
interface RequestInterface {
==PSR-7==
}


abstract class AbstractNode {
    #$name;
    #$contentDisposition = '';
    +__toString()
    +add(NodeInterface $node)
    +getName()
    +setContentDisposition(string $disposition)
    +getNested()
    -getContentDisposition()
}

AbstractNode <|- - NodeInterface

class Envelope {
    const TYPE_FORM_DATA = 'multipart/form-data';
    const TYPE_MIXED = 'multipart/mixed';
    const ATTRIB_BOUNDARY = "boundary";

    __construct(string $name, string $type='', $items = [])
    +__toString()
    +add(NodeInterface $node)
    +getName()
    +setContentDisposition(string $disposition)
    +getNested()

    -exists($name)
    -getPrefix()
    -getItems()
    -getItemsAsString()
    -getItemString($item)
    -fixNodeContentDisposition(NodeInterface $node, string $name)
}
Envelope <|- - NodeInterface

class Attachment {
    -$filename = '';
    -$stream;
    -$mime = '';
    -$disposition;

    const DEFAULT_MIME = "application/octet-stream";
    const BINARY_ENCODING = "content-transfer-encoding: binary\\n";

    __construct(string $filename, string $name, StreamInterface $data, string $mime='', string $disposition='')
    +__toString()
    +getNested()
    -headerName()
    -getMime()
    -isBinaryByMime(string $mimeType)
    -contentEncoding()
    -getContents()
    -ifBlank($value, $default)
}
Attachment <|- - AbstractNode
Attachment - -o StreamInterface
class FormInput {
    -$value
    __construct($name, $value)
    +__toString()
    +getNested()
}
FormInput <|- - AbstractNode

annotation stream_for

class FormBody {
    -$state;
    const HTTP_METHOD = "POST";

    __construct(Envelope $initialState)
    +addAttachment(string $name, StreamInterface $value, string $mimeType, string $fileName)
    +addFormInput(string $name, string $value)
    +__toString()
    +submit(RequestInterface $request)
}
FormBody ..|> FormInput : uses
FormBody ..|> Attachment : uses
FormBody ..|> Envelope : uses
FormBody ..|> StreamInterface : uses
FormBody ..|> RequestInterface : uses
FormBody ..|> stream_for : uses
@enduml

PlantUML version 1.2018.01(Sun Jan 28 18:08:22 UTC 2018)
(GPL source distribution)
Java Runtime: Java(TM) SE Runtime Environment
JVM: Java HotSpot(TM) 64-Bit Server VM
Java Version: 1.7.0_25-b15
Operating System: Linux
Default Encoding: UTF-8
Language: en
Country: US
--></g></svg>