<?xml version="1.0" encoding="UTF-8" standalone="no"?><svg xmlns="http://www.w3.org/2000/svg" xmlns:xlink="http://www.w3.org/1999/xlink" contentScriptType="application/ecmascript" contentStyleType="text/css" height="1261px" preserveAspectRatio="none" style="width:1304px;height:1261px;" version="1.1" viewBox="0 0 1304 1261" width="1304px" zoomAndPan="magnify"><defs><filter height="300%" id="f1hv9i7w6mqjj4" width="300%" x="-1" y="-1"><feGaussianBlur result="blurOut" stdDeviation="2.0"/><feColorMatrix in="blurOut" result="blurOut2" type="matrix" values="0 0 0 0 0 0 0 0 0 0 0 0 0 0 0 0 0 0 .4 0"/><feOffset dx="4.0" dy="4.0" in="blurOut2" result="blurOut3"/><feBlend in="SourceGraphic" in2="blurOut3" mode="normal"/></filter></defs><g><!--class NodeInterface--><rect fill="#FEFECE" filter="url(#f1hv9i7w6mqjj4)" height="188.8516" id="NodeInterface" style="stroke: #A80036; stroke-width: 1.5;" width="309" x="218" y="1062"/><ellipse cx="323.25" cy="1078" fill="#B4A7E5" rx="11" ry="11" style="stroke: #A80036; stroke-width: 1.0;"/><path d="M324.2031,1074.7813 L324.2031,1081.2969 L325.9219,1081.2969 C326.375,1081.2969 326.5156,1081.3281 326.6875,1081.4531 C326.9219,1081.625 327.0313,1081.875 327.0313,1082.1563 C327.0313,1082.7188 326.6719,1083 325.9219,1083 L320.7813,1083 C320.375,1083 320.1719,1082.9531 320.0156,1082.8281 C319.7969,1082.6719 319.6563,1082.4063 319.6563,1082.1563 C319.6563,1081.8594 319.8125,1081.5781 320.0625,1081.4219 C320.2188,1081.3125 320.3438,1081.2969 320.7813,1081.2969 L322.5,1081.2969 L322.5,1074.7813 L320.7813,1074.7813 C320.3594,1074.7813 320.1719,1074.75 320.0156,1074.6406 C319.7969,1074.4688 319.6563,1074.2188 319.6563,1073.9375 C319.6563,1073.6563 319.8125,1073.3594 320.0625,1073.2031 C320.2188,1073.1094 320.3438,1073.0938 320.7813,1073.0938 L325.9219,1073.0938 C326.375,1073.0938 326.5156,1073.125 326.6875,1073.2344 C326.9219,1073.4063 327.0313,1073.6719 327.0313,1073.9375 C327.0313,1074.2344 326.8906,1074.5156 326.625,1074.6719 C326.5,1074.75 326.3125,1074.7813 325.9219,1074.7813 Z "/><text fill="#000000" font-family="sans-serif" font-size="12" font-style="italic" lengthAdjust="spacingAndGlyphs" textLength="90" x="343.75" y="1082.1543">NodeInterface</text><line style="stroke: #A80036; stroke-width: 1.5;" x1="219" x2="526" y1="1094" y2="1094"/><text fill="#000000" font-family="sans-serif" font-size="11" lengthAdjust="spacingAndGlyphs" textLength="261" x="224" y="1108.2104">const DISPOSITION_FORMDATA = "form-data";</text><text fill="#000000" font-family="sans-serif" font-size="11" lengthAdjust="spacingAndGlyphs" textLength="284" x="224" y="1121.0151">const DISPOSITION_ATTACHMENT = "attachment";</text><text fill="#000000" font-family="sans-serif" font-size="11" lengthAdjust="spacingAndGlyphs" textLength="297" x="224" y="1133.8198">const HEADER_DISPOSITION = "content-disposition";</text><text fill="#000000" font-family="sans-serif" font-size="11" lengthAdjust="spacingAndGlyphs" textLength="274" x="224" y="1146.6245">const HEADER_CONTENT_TYPE = "content-type";</text><text fill="#000000" font-family="sans-serif" font-size="11" lengthAdjust="spacingAndGlyphs" textLength="174" x="224" y="1159.4292">const ATTRIB_NAME = "name";</text><text fill="#000000" font-family="sans-serif" font-size="11" lengthAdjust="spacingAndGlyphs" textLength="213" x="224" y="1172.2339">const ATTRIB_FILENAME = "filename";</text><line style="stroke: #A80036; stroke-width: 1.5;" x1="219" x2="526" y1="1178.8281" y2="1178.8281"/><ellipse cx="229" cy="1190.7305" fill="#84BE84" rx="3" ry="3" style="stroke: #038048; stroke-width: 1.0;"/><text fill="#000000" font-family="sans-serif" font-size="11" lengthAdjust="spacingAndGlyphs" textLength="65" x="238" y="1193.0386">__toString()</text><ellipse cx="229" cy="1203.5352" fill="#84BE84" rx="3" ry="3" style="stroke: #038048; stroke-width: 1.0;"/><text fill="#000000" font-family="sans-serif" font-size="11" lengthAdjust="spacingAndGlyphs" textLength="147" x="238" y="1205.8433">add(NodeInterface $node)</text><ellipse cx="229" cy="1216.3398" fill="#84BE84" rx="3" ry="3" style="stroke: #038048; stroke-width: 1.0;"/><text fill="#000000" font-family="sans-serif" font-size="11" lengthAdjust="spacingAndGlyphs" textLength="59" x="238" y="1218.6479">getName()</text><ellipse cx="229" cy="1229.1445" fill="#84BE84" rx="3" ry="3" style="stroke: #038048; stroke-width: 1.0;"/><text fill="#000000" font-family="sans-serif" font-size="11" lengthAdjust="spacingAndGlyphs" textLength="239" x="238" y="1231.4526">setContentDisposition(string $disposition)</text><ellipse cx="229" cy="1241.9492" fill="#84BE84" rx="3" ry="3" style="stroke: #038048; stroke-width: 1.0;"/><text fill="#000000" font-family="sans-serif" font-size="11" lengthAdjust="spacingAndGlyphs" textLength="66" x="238" y="1244.2573">getNested()</text><!--class StreamInterface--><rect fill="#FEFECE" filter="url(#f1hv9i7w6mqjj4)" height="59.207" id="StreamInterface" style="stroke: #A80036; stroke-width: 1.5;" width="134" x="98.5" y="582.5"/><ellipse cx="113.5" cy="598.5" fill="#B4A7E5" rx="11" ry="11" style="stroke: #A80036; stroke-width: 1.0;"/><path d="M114.4531,595.2813 L114.4531,601.7969 L116.1719,601.7969 C116.625,601.7969 116.7656,601.8281 116.9375,601.9531 C117.1719,602.125 117.2813,602.375 117.2813,602.6563 C117.2813,603.2188 116.9219,603.5 116.1719,603.5 L111.0313,603.5 C110.625,603.5 110.4219,603.4531 110.2656,603.3281 C110.0469,603.1719 109.9063,602.9063 109.9063,602.6563 C109.9063,602.3594 110.0625,602.0781 110.3125,601.9219 C110.4688,601.8125 110.5938,601.7969 111.0313,601.7969 L112.75,601.7969 L112.75,595.2813 L111.0313,595.2813 C110.6094,595.2813 110.4219,595.25 110.2656,595.1406 C110.0469,594.9688 109.9063,594.7188 109.9063,594.4375 C109.9063,594.1563 110.0625,593.8594 110.3125,593.7031 C110.4688,593.6094 110.5938,593.5938 111.0313,593.5938 L116.1719,593.5938 C116.625,593.5938 116.7656,593.625 116.9375,593.7344 C117.1719,593.9063 117.2813,594.1719 117.2813,594.4375 C117.2813,594.7344 117.1406,595.0156 116.875,595.1719 C116.75,595.25 116.5625,595.2813 116.1719,595.2813 Z "/><text fill="#000000" font-family="sans-serif" font-size="12" font-style="italic" lengthAdjust="spacingAndGlyphs" textLength="102" x="127.5" y="602.6543">StreamInterface</text><line style="stroke: #A80036; stroke-width: 1.5;" x1="99.5" x2="231.5" y1="614.5" y2="614.5"/><line style="stroke: #A80036; stroke-width: 1.0;" x1="99.5" x2="149" y1="628.9023" y2="628.9023"/><line style="stroke: #A80036; stroke-width: 1.0;" x1="99.5" x2="149" y1="630.9023" y2="630.9023"/><text fill="#000000" font-family="sans-serif" font-size="11" lengthAdjust="spacingAndGlyphs" textLength="33" x="149" y="632.2104">PSR-7</text><line style="stroke: #A80036; stroke-width: 1.0;" x1="182" x2="231.5" y1="628.9023" y2="628.9023"/><line style="stroke: #A80036; stroke-width: 1.0;" x1="182" x2="231.5" y1="630.9023" y2="630.9023"/><!--class RequestInterface--><rect fill="#FEFECE" filter="url(#f1hv9i7w6mqjj4)" height="59.207" id="RequestInterface" style="stroke: #A80036; stroke-width: 1.5;" width="140" x="1018.5" y="320"/><ellipse cx="1033.5" cy="336" fill="#B4A7E5" rx="11" ry="11" style="stroke: #A80036; stroke-width: 1.0;"/><path d="M1034.4531,332.7813 L1034.4531,339.2969 L1036.1719,339.2969 C1036.625,339.2969 1036.7656,339.3281 1036.9375,339.4531 C1037.1719,339.625 1037.2813,339.875 1037.2813,340.1563 C1037.2813,340.7188 1036.9219,341 1036.1719,341 L1031.0313,341 C1030.625,341 1030.4219,340.9531 1030.2656,340.8281 C1030.0469,340.6719 1029.9063,340.4063 1029.9063,340.1563 C1029.9063,339.8594 1030.0625,339.5781 1030.3125,339.4219 C1030.4688,339.3125 1030.5938,339.2969 1031.0313,339.2969 L1032.75,339.2969 L1032.75,332.7813 L1031.0313,332.7813 C1030.6094,332.7813 1030.4219,332.75 1030.2656,332.6406 C1030.0469,332.4688 1029.9063,332.2188 1029.9063,331.9375 C1029.9063,331.6563 1030.0625,331.3594 1030.3125,331.2031 C1030.4688,331.1094 1030.5938,331.0938 1031.0313,331.0938 L1036.1719,331.0938 C1036.625,331.0938 1036.7656,331.125 1036.9375,331.2344 C1037.1719,331.4063 1037.2813,331.6719 1037.2813,331.9375 C1037.2813,332.2344 1037.1406,332.5156 1036.875,332.6719 C1036.75,332.75 1036.5625,332.7813 1036.1719,332.7813 Z "/><text fill="#000000" font-family="sans-serif" font-size="12" font-style="italic" lengthAdjust="spacingAndGlyphs" textLength="108" x="1047.5" y="340.1543">RequestInterface</text><line style="stroke: #A80036; stroke-width: 1.5;" x1="1019.5" x2="1157.5" y1="352" y2="352"/><line style="stroke: #A80036; stroke-width: 1.0;" x1="1019.5" x2="1072" y1="366.4023" y2="366.4023"/><line style="stroke: #A80036; stroke-width: 1.0;" x1="1019.5" x2="1072" y1="368.4023" y2="368.4023"/><text fill="#000000" font-family="sans-serif" font-size="11" lengthAdjust="spacingAndGlyphs" textLength="33" x="1072" y="369.7104">PSR-7</text><line style="stroke: #A80036; stroke-width: 1.0;" x1="1105" x2="1157.5" y1="366.4023" y2="366.4023"/><line style="stroke: #A80036; stroke-width: 1.0;" x1="1105" x2="1157.5" y1="368.4023" y2="368.4023"/><!--class AbstractNode--><rect fill="#FEFECE" filter="url(#f1hv9i7w6mqjj4)" height="150.4375" id="AbstractNode" style="stroke: #A80036; stroke-width: 1.5;" width="265" x="312" y="537"/><ellipse cx="397.75" cy="553" fill="#A9DCDF" rx="11" ry="11" style="stroke: #A80036; stroke-width: 1.0;"/><path d="M399.3281,554.8125 L395.2813,554.8125 L394.8906,555.7969 L395.2813,555.7969 C395.7344,555.7969 395.875,555.8281 396.0469,555.9531 C396.2656,556.125 396.3906,556.375 396.3906,556.6563 C396.3906,556.9375 396.25,557.2344 395.9844,557.375 C395.8594,557.4688 395.6406,557.5 395.2813,557.5 L393.0156,557.5 C392.2656,557.5 391.8906,557.2188 391.8906,556.6563 C391.8906,556.3594 392.0469,556.0781 392.2969,555.9219 C392.4531,555.8125 392.6094,555.7969 393.0313,555.7969 L395.6719,549.2813 L394.5938,549.2813 C394.1563,549.2813 393.9844,549.25 393.8125,549.1406 C393.5938,548.9688 393.4531,548.7188 393.4531,548.4375 C393.4531,548.1563 393.6094,547.875 393.8594,547.7031 C394.0156,547.6094 394.1406,547.5938 394.5938,547.5938 L398.2656,547.5938 L401.6563,555.7969 C402.125,555.7969 402.2813,555.8281 402.4531,555.9688 C402.6719,556.125 402.8125,556.375 402.8125,556.6563 C402.8125,556.9375 402.6563,557.2344 402.4063,557.375 C402.2656,557.4688 402.0469,557.5 401.6875,557.5 L399.3281,557.5 C398.9063,557.5 398.7031,557.4531 398.5625,557.3281 C398.3438,557.1719 398.2031,556.9219 398.2031,556.6563 C398.2031,556.3594 398.3594,556.0781 398.6094,555.9219 C398.7656,555.8125 398.875,555.7969 399.3281,555.7969 L399.7188,555.7969 Z M398.625,553.1094 L397.2969,549.8438 L395.9531,553.1094 Z "/><text fill="#000000" font-family="sans-serif" font-size="12" font-style="italic" lengthAdjust="spacingAndGlyphs" textLength="85" x="418.25" y="557.1543">AbstractNode</text><line style="stroke: #A80036; stroke-width: 1.5;" x1="313" x2="576" y1="569" y2="569"/><polygon fill="none" points="323,575.9023,327,579.9023,323,583.9023,319,579.9023" style="stroke: #B38D22; stroke-width: 1.0;"/><text fill="#000000" font-family="sans-serif" font-size="11" lengthAdjust="spacingAndGlyphs" textLength="43" x="332" y="583.2104">$name;</text><polygon fill="none" points="323,588.707,327,592.707,323,596.707,319,592.707" style="stroke: #B38D22; stroke-width: 1.0;"/><text fill="#000000" font-family="sans-serif" font-size="11" lengthAdjust="spacingAndGlyphs" textLength="139" x="332" y="596.0151">$contentDisposition = '';</text><line style="stroke: #A80036; stroke-width: 1.5;" x1="313" x2="576" y1="602.6094" y2="602.6094"/><ellipse cx="323" cy="614.5117" fill="#84BE84" rx="3" ry="3" style="stroke: #038048; stroke-width: 1.0;"/><text fill="#000000" font-family="sans-serif" font-size="11" lengthAdjust="spacingAndGlyphs" textLength="65" x="332" y="616.8198">__toString()</text><ellipse cx="323" cy="627.3164" fill="#84BE84" rx="3" ry="3" style="stroke: #038048; stroke-width: 1.0;"/><text fill="#000000" font-family="sans-serif" font-size="11" lengthAdjust="spacingAndGlyphs" textLength="147" x="332" y="629.6245">add(NodeInterface $node)</text><ellipse cx="323" cy="640.1211" fill="#84BE84" rx="3" ry="3" style="stroke: #038048; stroke-width: 1.0;"/><text fill="#000000" font-family="sans-serif" font-size="11" lengthAdjust="spacingAndGlyphs" textLength="59" x="332" y="642.4292">getName()</text><ellipse cx="323" cy="652.9258" fill="#84BE84" rx="3" ry="3" style="stroke: #038048; stroke-width: 1.0;"/><text fill="#000000" font-family="sans-serif" font-size="11" lengthAdjust="spacingAndGlyphs" textLength="239" x="332" y="655.2339">setContentDisposition(string $disposition)</text><ellipse cx="323" cy="665.7305" fill="#84BE84" rx="3" ry="3" style="stroke: #038048; stroke-width: 1.0;"/><text fill="#000000" font-family="sans-serif" font-size="11" lengthAdjust="spacingAndGlyphs" textLength="66" x="332" y="668.0386">getNested()</text><rect fill="#F24D5C" height="6" style="stroke: #C82930; stroke-width: 1.0;" width="6" x="320" y="675.5352"/><text fill="#000000" font-family="sans-serif" font-size="11" lengthAdjust="spacingAndGlyphs" textLength="133" x="332" y="680.8433">getContentDisposition()</text><!--class Envelope--><rect fill="#FEFECE" filter="url(#f1hv9i7w6mqjj4)" height="252.875" id="Envelope" style="stroke: #A80036; stroke-width: 1.5;" width="385" x="6" y="748"/><ellipse cx="165.75" cy="764" fill="#ADD1B2" rx="11" ry="11" style="stroke: #A80036; stroke-width: 1.0;"/><path d="M168.0938,759.6719 L168.2656,759.75 C168.4844,759.4375 168.6875,759.3438 168.9844,759.3438 C169.2813,759.3438 169.5625,759.4844 169.7188,759.75 C169.8125,759.9063 169.8281,760.0313 169.8281,760.4688 L169.8281,761.8906 C169.8281,762.3125 169.7969,762.5 169.6875,762.6563 C169.5156,762.875 169.25,763.0156 168.9844,763.0156 C168.7656,763.0156 168.5313,762.9063 168.3906,762.7656 C168.25,762.6406 168.2188,762.5156 168.1563,762.1094 C168.0625,761.7031 167.8906,761.4844 167.4063,761.2031 C166.9375,760.9531 166.3281,760.7969 165.75,760.7969 C164.0156,760.7969 162.7656,762.1094 162.7656,763.8906 L162.7656,764.9844 C162.7656,766.6875 164.0625,767.7813 166.1094,767.7813 C166.875,767.7813 167.5625,767.6563 167.9844,767.3906 C168.1719,767.2969 168.1719,767.2969 168.625,766.8125 C168.8125,766.625 169.0156,766.5469 169.2344,766.5469 C169.7031,766.5469 170.0938,766.9375 170.0938,767.3906 C170.0938,767.7813 169.7656,768.2344 169.1875,768.6406 C168.4375,769.1875 167.2813,769.4844 166.0625,769.4844 C163.1719,769.4844 161.0625,767.5938 161.0625,765.0156 L161.0625,763.8906 C161.0625,761.1719 163.0625,759.0938 165.6875,759.0938 C166.5625,759.0938 167.1563,759.2344 168.0938,759.6719 Z "/><text fill="#000000" font-family="sans-serif" font-size="12" lengthAdjust="spacingAndGlyphs" textLength="57" x="186.25" y="768.1543">Envelope</text><line style="stroke: #A80036; stroke-width: 1.5;" x1="7" x2="390" y1="780" y2="780"/><text fill="#000000" font-family="sans-serif" font-size="11" lengthAdjust="spacingAndGlyphs" textLength="273" x="12" y="794.2104">const TYPE_FORM_DATA = 'multipart/form-data';</text><text fill="#000000" font-family="sans-serif" font-size="11" lengthAdjust="spacingAndGlyphs" textLength="219" x="12" y="807.0151">const TYPE_MIXED = 'multipart/mixed';</text><text fill="#000000" font-family="sans-serif" font-size="11" lengthAdjust="spacingAndGlyphs" textLength="226" x="12" y="819.8198">const ATTRIB_BOUNDARY = "boundary";</text><line style="stroke: #A80036; stroke-width: 1.5;" x1="7" x2="390" y1="826.4141" y2="826.4141"/><text fill="#000000" font-family="sans-serif" font-size="11" lengthAdjust="spacingAndGlyphs" textLength="312" x="26" y="840.6245">__construct(string $name, string $type='', $items = [])</text><ellipse cx="17" cy="851.1211" fill="#84BE84" rx="3" ry="3" style="stroke: #038048; stroke-width: 1.0;"/><text fill="#000000" font-family="sans-serif" font-size="11" lengthAdjust="spacingAndGlyphs" textLength="65" x="26" y="853.4292">__toString()</text><ellipse cx="17" cy="863.9258" fill="#84BE84" rx="3" ry="3" style="stroke: #038048; stroke-width: 1.0;"/><text fill="#000000" font-family="sans-serif" font-size="11" lengthAdjust="spacingAndGlyphs" textLength="147" x="26" y="866.2339">add(NodeInterface $node)</text><ellipse cx="17" cy="876.7305" fill="#84BE84" rx="3" ry="3" style="stroke: #038048; stroke-width: 1.0;"/><text fill="#000000" font-family="sans-serif" font-size="11" lengthAdjust="spacingAndGlyphs" textLength="59" x="26" y="879.0386">getName()</text><ellipse cx="17" cy="889.5352" fill="#84BE84" rx="3" ry="3" style="stroke: #038048; stroke-width: 1.0;"/><text fill="#000000" font-family="sans-serif" font-size="11" lengthAdjust="spacingAndGlyphs" textLength="239" x="26" y="891.8433">setContentDisposition(string $disposition)</text><ellipse cx="17" cy="902.3398" fill="#84BE84" rx="3" ry="3" style="stroke: #038048; stroke-width: 1.0;"/><text fill="#000000" font-family="sans-serif" font-size="11" lengthAdjust="spacingAndGlyphs" textLength="66" x="26" y="904.6479">getNested()</text><text fill="#000000" font-family="sans-serif" font-size="11" lengthAdjust="spacingAndGlyphs" textLength="0" x="30" y="917.4526"/><rect fill="#F24D5C" height="6" style="stroke: #C82930; stroke-width: 1.0;" width="6" x="14" y="924.9492"/><text fill="#000000" font-family="sans-serif" font-size="11" lengthAdjust="spacingAndGlyphs" textLength="81" x="26" y="930.2573">exists($name)</text><rect fill="#F24D5C" height="6" style="stroke: #C82930; stroke-width: 1.0;" width="6" x="14" y="937.7539"/><text fill="#000000" font-family="sans-serif" font-size="11" lengthAdjust="spacingAndGlyphs" textLength="58" x="26" y="943.062">getPrefix()</text><rect fill="#F24D5C" height="6" style="stroke: #C82930; stroke-width: 1.0;" width="6" x="14" y="950.5586"/><text fill="#000000" font-family="sans-serif" font-size="11" lengthAdjust="spacingAndGlyphs" textLength="58" x="26" y="955.8667">getItems()</text><rect fill="#F24D5C" height="6" style="stroke: #C82930; stroke-width: 1.0;" width="6" x="14" y="963.3633"/><text fill="#000000" font-family="sans-serif" font-size="11" lengthAdjust="spacingAndGlyphs" textLength="106" x="26" y="968.6714">getItemsAsString()</text><rect fill="#F24D5C" height="6" style="stroke: #C82930; stroke-width: 1.0;" width="6" x="14" y="976.168"/><text fill="#000000" font-family="sans-serif" font-size="11" lengthAdjust="spacingAndGlyphs" textLength="117" x="26" y="981.4761">getItemString($item)</text><rect fill="#F24D5C" height="6" style="stroke: #C82930; stroke-width: 1.0;" width="6" x="14" y="988.9727"/><text fill="#000000" font-family="sans-serif" font-size="11" lengthAdjust="spacingAndGlyphs" textLength="359" x="26" y="994.2808">fixNodeContentDisposition(NodeInterface $node, string $name)</text><!--class Attachment--><rect fill="#FEFECE" filter="url(#f1hv9i7w6mqjj4)" height="252.875" id="Attachment" style="stroke: #A80036; stroke-width: 1.5;" width="640" x="124.5" y="223"/><ellipse cx="403.75" cy="239" fill="#ADD1B2" rx="11" ry="11" style="stroke: #A80036; stroke-width: 1.0;"/><path d="M406.0938,234.6719 L406.2656,234.75 C406.4844,234.4375 406.6875,234.3438 406.9844,234.3438 C407.2813,234.3438 407.5625,234.4844 407.7188,234.75 C407.8125,234.9063 407.8281,235.0313 407.8281,235.4688 L407.8281,236.8906 C407.8281,237.3125 407.7969,237.5 407.6875,237.6563 C407.5156,237.875 407.25,238.0156 406.9844,238.0156 C406.7656,238.0156 406.5313,237.9063 406.3906,237.7656 C406.25,237.6406 406.2188,237.5156 406.1563,237.1094 C406.0625,236.7031 405.8906,236.4844 405.4063,236.2031 C404.9375,235.9531 404.3281,235.7969 403.75,235.7969 C402.0156,235.7969 400.7656,237.1094 400.7656,238.8906 L400.7656,239.9844 C400.7656,241.6875 402.0625,242.7813 404.1094,242.7813 C404.875,242.7813 405.5625,242.6563 405.9844,242.3906 C406.1719,242.2969 406.1719,242.2969 406.625,241.8125 C406.8125,241.625 407.0156,241.5469 407.2344,241.5469 C407.7031,241.5469 408.0938,241.9375 408.0938,242.3906 C408.0938,242.7813 407.7656,243.2344 407.1875,243.6406 C406.4375,244.1875 405.2813,244.4844 404.0625,244.4844 C401.1719,244.4844 399.0625,242.5938 399.0625,240.0156 L399.0625,238.8906 C399.0625,236.1719 401.0625,234.0938 403.6875,234.0938 C404.5625,234.0938 405.1563,234.2344 406.0938,234.6719 Z "/><text fill="#000000" font-family="sans-serif" font-size="12" lengthAdjust="spacingAndGlyphs" textLength="73" x="424.25" y="243.1543">Attachment</text><line style="stroke: #A80036; stroke-width: 1.5;" x1="125.5" x2="763.5" y1="255" y2="255"/><rect fill="none" height="6" style="stroke: #C82930; stroke-width: 1.0;" width="6" x="132.5" y="263.9023"/><text fill="#000000" font-family="sans-serif" font-size="11" lengthAdjust="spacingAndGlyphs" textLength="83" x="144.5" y="269.2104">$filename = '';</text><rect fill="none" height="6" style="stroke: #C82930; stroke-width: 1.0;" width="6" x="132.5" y="276.707"/><text fill="#000000" font-family="sans-serif" font-size="11" lengthAdjust="spacingAndGlyphs" textLength="52" x="144.5" y="282.0151">$stream;</text><rect fill="none" height="6" style="stroke: #C82930; stroke-width: 1.0;" width="6" x="132.5" y="289.5117"/><text fill="#000000" font-family="sans-serif" font-size="11" lengthAdjust="spacingAndGlyphs" textLength="66" x="144.5" y="294.8198">$mime = '';</text><rect fill="none" height="6" style="stroke: #C82930; stroke-width: 1.0;" width="6" x="132.5" y="302.3164"/><text fill="#000000" font-family="sans-serif" font-size="11" lengthAdjust="spacingAndGlyphs" textLength="73" x="144.5" y="307.6245">$disposition;</text><text fill="#000000" font-family="sans-serif" font-size="11" lengthAdjust="spacingAndGlyphs" textLength="0" x="148.5" y="320.4292"/><text fill="#000000" font-family="sans-serif" font-size="11" lengthAdjust="spacingAndGlyphs" textLength="287" x="144.5" y="333.2339">const DEFAULT_MIME = "application/octet-stream";</text><text fill="#000000" font-family="sans-serif" font-size="11" lengthAdjust="spacingAndGlyphs" textLength="373" x="144.5" y="346.0386">const BINARY_ENCODING = "content-transfer-encoding: binary\n";</text><line style="stroke: #A80036; stroke-width: 1.5;" x1="125.5" x2="763.5" y1="352.6328" y2="352.6328"/><text fill="#000000" font-family="sans-serif" font-size="11" lengthAdjust="spacingAndGlyphs" textLength="614" x="144.5" y="366.8433">__construct(string $filename, string $name, StreamInterface $data, string $mime='', string $disposition='')</text><ellipse cx="135.5" cy="377.3398" fill="#84BE84" rx="3" ry="3" style="stroke: #038048; stroke-width: 1.0;"/><text fill="#000000" font-family="sans-serif" font-size="11" lengthAdjust="spacingAndGlyphs" textLength="65" x="144.5" y="379.6479">__toString()</text><ellipse cx="135.5" cy="390.1445" fill="#84BE84" rx="3" ry="3" style="stroke: #038048; stroke-width: 1.0;"/><text fill="#000000" font-family="sans-serif" font-size="11" lengthAdjust="spacingAndGlyphs" textLength="66" x="144.5" y="392.4526">getNested()</text><rect fill="#F24D5C" height="6" style="stroke: #C82930; stroke-width: 1.0;" width="6" x="132.5" y="399.9492"/><text fill="#000000" font-family="sans-serif" font-size="11" lengthAdjust="spacingAndGlyphs" textLength="81" x="144.5" y="405.2573">headerName()</text><rect fill="#F24D5C" height="6" style="stroke: #C82930; stroke-width: 1.0;" width="6" x="132.5" y="412.7539"/><text fill="#000000" font-family="sans-serif" font-size="11" lengthAdjust="spacingAndGlyphs" textLength="56" x="144.5" y="418.062">getMime()</text><rect fill="#F24D5C" height="6" style="stroke: #C82930; stroke-width: 1.0;" width="6" x="132.5" y="425.5586"/><text fill="#000000" font-family="sans-serif" font-size="11" lengthAdjust="spacingAndGlyphs" textLength="201" x="144.5" y="430.8667">isBinaryByMime(string $mimeType)</text><rect fill="#F24D5C" height="6" style="stroke: #C82930; stroke-width: 1.0;" width="6" x="132.5" y="438.3633"/><text fill="#000000" font-family="sans-serif" font-size="11" lengthAdjust="spacingAndGlyphs" textLength="101" x="144.5" y="443.6714">contentEncoding()</text><rect fill="#F24D5C" height="6" style="stroke: #C82930; stroke-width: 1.0;" width="6" x="132.5" y="451.168"/><text fill="#000000" font-family="sans-serif" font-size="11" lengthAdjust="spacingAndGlyphs" textLength="77" x="144.5" y="456.4761">getContents()</text><rect fill="#F24D5C" height="6" style="stroke: #C82930; stroke-width: 1.0;" width="6" x="132.5" y="463.9727"/><text fill="#000000" font-family="sans-serif" font-size="11" lengthAdjust="spacingAndGlyphs" textLength="137" x="144.5" y="469.2808">ifBlank($value, $default)</text><!--class FormInput--><rect fill="#FEFECE" filter="url(#f1hv9i7w6mqjj4)" height="99.2188" id="FormInput" style="stroke: #A80036; stroke-width: 1.5;" width="183" x="800" y="300"/><ellipse cx="855.75" cy="316" fill="#ADD1B2" rx="11" ry="11" style="stroke: #A80036; stroke-width: 1.0;"/><path d="M858.0938,311.6719 L858.2656,311.75 C858.4844,311.4375 858.6875,311.3438 858.9844,311.3438 C859.2813,311.3438 859.5625,311.4844 859.7188,311.75 C859.8125,311.9063 859.8281,312.0313 859.8281,312.4688 L859.8281,313.8906 C859.8281,314.3125 859.7969,314.5 859.6875,314.6563 C859.5156,314.875 859.25,315.0156 858.9844,315.0156 C858.7656,315.0156 858.5313,314.9063 858.3906,314.7656 C858.25,314.6406 858.2188,314.5156 858.1563,314.1094 C858.0625,313.7031 857.8906,313.4844 857.4063,313.2031 C856.9375,312.9531 856.3281,312.7969 855.75,312.7969 C854.0156,312.7969 852.7656,314.1094 852.7656,315.8906 L852.7656,316.9844 C852.7656,318.6875 854.0625,319.7813 856.1094,319.7813 C856.875,319.7813 857.5625,319.6563 857.9844,319.3906 C858.1719,319.2969 858.1719,319.2969 858.625,318.8125 C858.8125,318.625 859.0156,318.5469 859.2344,318.5469 C859.7031,318.5469 860.0938,318.9375 860.0938,319.3906 C860.0938,319.7813 859.7656,320.2344 859.1875,320.6406 C858.4375,321.1875 857.2813,321.4844 856.0625,321.4844 C853.1719,321.4844 851.0625,319.5938 851.0625,317.0156 L851.0625,315.8906 C851.0625,313.1719 853.0625,311.0938 855.6875,311.0938 C856.5625,311.0938 857.1563,311.2344 858.0938,311.6719 Z "/><text fill="#000000" font-family="sans-serif" font-size="12" lengthAdjust="spacingAndGlyphs" textLength="63" x="876.25" y="320.1543">FormInput</text><line style="stroke: #A80036; stroke-width: 1.5;" x1="801" x2="982" y1="332" y2="332"/><rect fill="none" height="6" style="stroke: #C82930; stroke-width: 1.0;" width="6" x="808" y="340.9023"/><text fill="#000000" font-family="sans-serif" font-size="11" lengthAdjust="spacingAndGlyphs" textLength="37" x="820" y="346.2104">$value</text><line style="stroke: #A80036; stroke-width: 1.5;" x1="801" x2="982" y1="352.8047" y2="352.8047"/><text fill="#000000" font-family="sans-serif" font-size="11" lengthAdjust="spacingAndGlyphs" textLength="157" x="820" y="367.0151">__construct($name, $value)</text><ellipse cx="811" cy="377.5117" fill="#84BE84" rx="3" ry="3" style="stroke: #038048; stroke-width: 1.0;"/><text fill="#000000" font-family="sans-serif" font-size="11" lengthAdjust="spacingAndGlyphs" textLength="65" x="820" y="379.8198">__toString()</text><ellipse cx="811" cy="390.3164" fill="#84BE84" rx="3" ry="3" style="stroke: #038048; stroke-width: 1.0;"/><text fill="#000000" font-family="sans-serif" font-size="11" lengthAdjust="spacingAndGlyphs" textLength="66" x="820" y="392.6245">getNested()</text><!--class stream_for--><rect fill="#FEFECE" filter="url(#f1hv9i7w6mqjj4)" height="48" id="stream_for" style="stroke: #A80036; stroke-width: 1.5;" width="99" x="1194" y="325.5"/><ellipse cx="1209" cy="341.5" fill="#E3664A" rx="11" ry="11" style="stroke: #A80036; stroke-width: 1.0;"/><path d="M1210.9219,338.75 L1210.9219,338.2031 C1210.9219,337.0781 1210.1875,336.2969 1209.1406,336.2969 C1207.7031,336.2969 1206.6406,337.9375 1206.6406,340.1094 L1206.6406,342.7656 C1206.6406,344.0625 1206.9219,345.1094 1207.5,345.9063 C1207.9063,346.5 1208.4375,346.7656 1209.1875,346.7656 C1209.9375,346.7656 1210.6094,346.5469 1210.9375,346.2188 C1211.1719,345.9688 1211.2656,345.9219 1211.4688,345.9219 C1211.8438,345.9219 1212.1406,346.2344 1212.1406,346.625 C1212.1406,347.4219 1210.75,348.0781 1209.1406,348.0781 C1207.7344,348.0781 1206.8125,347.5156 1206.0938,346.2656 C1205.5781,345.3438 1205.2969,344.125 1205.2969,342.875 L1205.2969,340.0156 C1205.2969,337.0781 1206.9063,334.9531 1209.1094,334.9531 C1210.9531,334.9531 1212.2656,336.3125 1212.2656,338.2031 L1212.2656,342.9844 C1212.5313,343.1094 1212.6563,343.2969 1212.6563,343.5781 C1212.6563,344.0625 1212.3438,344.2813 1211.7188,344.2813 L1210.9219,344.2813 L1210.9219,344.2188 C1210.6563,344.2656 1210.5156,344.2813 1210.3594,344.2813 C1208.9063,344.2813 1207.7031,343.0625 1207.7031,341.6563 C1207.7031,340.0781 1209.0156,338.8906 1210.9219,338.75 Z M1210.9219,342.8594 L1210.9219,340.125 C1209.7969,340.2344 1209.0469,340.8438 1209.0469,341.6719 C1209.0469,342.375 1209.6563,342.9063 1210.4844,342.9063 C1210.5938,342.9063 1210.6875,342.9063 1210.9219,342.8594 Z "/><text fill="#000000" font-family="sans-serif" font-size="12" lengthAdjust="spacingAndGlyphs" textLength="67" x="1223" y="345.6543">stream_for</text><line style="stroke: #A80036; stroke-width: 1.5;" x1="1195" x2="1292" y1="357.5" y2="357.5"/><line style="stroke: #A80036; stroke-width: 1.5;" x1="1195" x2="1292" y1="365.5" y2="365.5"/><!--class FormBody--><rect fill="#FEFECE" filter="url(#f1hv9i7w6mqjj4)" height="137.6328" id="FormBody" style="stroke: #A80036; stroke-width: 1.5;" width="549" x="393" y="8"/><ellipse cx="632.75" cy="24" fill="#ADD1B2" rx="11" ry="11" style="stroke: #A80036; stroke-width: 1.0;"/><path d="M635.0938,19.6719 L635.2656,19.75 C635.4844,19.4375 635.6875,19.3438 635.9844,19.3438 C636.2813,19.3438 636.5625,19.4844 636.7188,19.75 C636.8125,19.9063 636.8281,20.0313 636.8281,20.4688 L636.8281,21.8906 C636.8281,22.3125 636.7969,22.5 636.6875,22.6563 C636.5156,22.875 636.25,23.0156 635.9844,23.0156 C635.7656,23.0156 635.5313,22.9063 635.3906,22.7656 C635.25,22.6406 635.2188,22.5156 635.1563,22.1094 C635.0625,21.7031 634.8906,21.4844 634.4063,21.2031 C633.9375,20.9531 633.3281,20.7969 632.75,20.7969 C631.0156,20.7969 629.7656,22.1094 629.7656,23.8906 L629.7656,24.9844 C629.7656,26.6875 631.0625,27.7813 633.1094,27.7813 C633.875,27.7813 634.5625,27.6563 634.9844,27.3906 C635.1719,27.2969 635.1719,27.2969 635.625,26.8125 C635.8125,26.625 636.0156,26.5469 636.2344,26.5469 C636.7031,26.5469 637.0938,26.9375 637.0938,27.3906 C637.0938,27.7813 636.7656,28.2344 636.1875,28.6406 C635.4375,29.1875 634.2813,29.4844 633.0625,29.4844 C630.1719,29.4844 628.0625,27.5938 628.0625,25.0156 L628.0625,23.8906 C628.0625,21.1719 630.0625,19.0938 632.6875,19.0938 C633.5625,19.0938 634.1563,19.2344 635.0938,19.6719 Z "/><text fill="#000000" font-family="sans-serif" font-size="12" lengthAdjust="spacingAndGlyphs" textLength="61" x="653.25" y="28.1543">FormBody</text><line style="stroke: #A80036; stroke-width: 1.5;" x1="394" x2="941" y1="40" y2="40"/><rect fill="none" height="6" style="stroke: #C82930; stroke-width: 1.0;" width="6" x="401" y="48.9023"/><text fill="#000000" font-family="sans-serif" font-size="11" lengthAdjust="spacingAndGlyphs" textLength="40" x="413" y="54.2104">$state;</text><text fill="#000000" font-family="sans-serif" font-size="11" lengthAdjust="spacingAndGlyphs" textLength="180" x="413" y="67.0151">const HTTP_METHOD = "POST";</text><line style="stroke: #A80036; stroke-width: 1.5;" x1="394" x2="941" y1="73.6094" y2="73.6094"/><text fill="#000000" font-family="sans-serif" font-size="11" lengthAdjust="spacingAndGlyphs" textLength="195" x="413" y="87.8198">__construct(Envelope $initialState)</text><ellipse cx="404" cy="98.3164" fill="#84BE84" rx="3" ry="3" style="stroke: #038048; stroke-width: 1.0;"/><text fill="#000000" font-family="sans-serif" font-size="11" lengthAdjust="spacingAndGlyphs" textLength="523" x="413" y="100.6245">addAttachment(string $name, StreamInterface $value, string $mimeType, string $fileName)</text><ellipse cx="404" cy="111.1211" fill="#84BE84" rx="3" ry="3" style="stroke: #038048; stroke-width: 1.0;"/><text fill="#000000" font-family="sans-serif" font-size="11" lengthAdjust="spacingAndGlyphs" textLength="244" x="413" y="113.4292">addFormInput(string $name, string $value)</text><ellipse cx="404" cy="123.9258" fill="#84BE84" rx="3" ry="3" style="stroke: #038048; stroke-width: 1.0;"/><text fill="#000000" font-family="sans-serif" font-size="11" lengthAdjust="spacingAndGlyphs" textLength="65" x="413" y="126.2339">__toString()</text><ellipse cx="404" cy="136.7305" fill="#84BE84" rx="3" ry="3" style="stroke: #038048; stroke-width: 1.0;"/><text fill="#000000" font-family="sans-serif" font-size="11" lengthAdjust="spacingAndGlyphs" textLength="198" x="413" y="139.0386">submit(RequestInterface $request)</text><!--link AbstractNode to NodeInterface--><path d="M439.378,707.018 C434.222,785.877 424.667,901.281 408.5,1001 C405.283,1020.846 400.973,1041.937 396.455,1061.948 " fill="none" id="AbstractNode-NodeInterface" style="stroke: #A80036; stroke-width: 1.0;"/><polygon fill="none" points="432.393,706.558,440.641,687.039,446.365,707.441,432.393,706.558" style="stroke: #A80036; stroke-width: 1.0;"/><!--link AbstractNode to Envelope--><path d="M374.335,687.3 C359.238,703.288 342.829,720.664 326.304,738.163 " fill="none" id="AbstractNode-Envelope" style="stroke: #A80036; stroke-width: 1.0;"/><polygon fill="#FFFFFF" points="317.119,747.889,324.1466,746.2726,325.3575,739.1639,318.3299,740.7803,317.119,747.889" style="stroke: #A80036; stroke-width: 1.0;"/><!--link Envelope to NodeInterface--><path d="M287.301,1018.398 C296.433,1033.093 305.538,1047.746 314.215,1061.707 " fill="none" id="Envelope-NodeInterface" style="stroke: #A80036; stroke-width: 1.0;"/><polygon fill="none" points="281.204,1021.849,276.593,1001.167,293.095,1014.459,281.204,1021.849" style="stroke: #A80036; stroke-width: 1.0;"/><!--link Attachment to AbstractNode--><path d="M444.5,496.639 C444.5,510.54 444.5,524.196 444.5,536.961 " fill="none" id="Attachment-AbstractNode" style="stroke: #A80036; stroke-width: 1.0;"/><polygon fill="none" points="437.5,496.172,444.5,476.172,451.5,496.172,437.5,496.172" style="stroke: #A80036; stroke-width: 1.0;"/><!--link Attachment to StreamInterface--><path d="M309.903,476.172 C271.927,511.63 233.466,547.541 205.795,573.377 " fill="none" id="Attachment-StreamInterface" style="stroke: #A80036; stroke-width: 1.0;"/><polygon fill="#FFFFFF" points="196.11,582.42,203.2254,581.2489,204.8811,574.2305,197.7657,575.4016,196.11,582.42" style="stroke: #A80036; stroke-width: 1.0;"/><!--link FormInput to AbstractNode--><path d="M845.136,414.798 C827.147,436.402 805.17,459.242 781.5,476 C720.03,519.521 642.515,551.827 577.33,573.906 " fill="none" id="FormInput-AbstractNode" style="stroke: #A80036; stroke-width: 1.0;"/><polygon fill="none" points="839.816,410.243,857.787,399.016,850.739,419,839.816,410.243" style="stroke: #A80036; stroke-width: 1.0;"/><!--link FormBody to FormInput--><path d="M724.025,146.26 C759.114,188.63 803.922,242.74 838.36,284.328 " fill="none" id="FormBody-FormInput" style="stroke: #A80036; stroke-width: 1.0; stroke-dasharray: 7.0,7.0;"/><polygon fill="none" points="843.879,280.018,851.243,299.886,833.096,288.947,843.879,280.018" style="stroke: #A80036; stroke-width: 1.0;"/><text fill="#000000" font-family="sans-serif" font-size="13" lengthAdjust="spacingAndGlyphs" textLength="48" x="760.5" y="189.0669">internal</text><!--link FormBody to Attachment--><path d="M611.228,146.26 C595.758,165.02 578.39,186.09 560.861,207.35 " fill="none" id="FormBody-Attachment" style="stroke: #A80036; stroke-width: 1.0; stroke-dasharray: 7.0,7.0;"/><polygon fill="none" points="566.218,211.86,548.095,222.84,555.416,202.95,566.218,211.86" style="stroke: #A80036; stroke-width: 1.0;"/><text fill="#000000" font-family="sans-serif" font-size="13" lengthAdjust="spacingAndGlyphs" textLength="48" x="584.5" y="189.0669">internal</text><!--link FormBody to stream_for--><path d="M942.166,114.58 C1023.73,135.89 1108.97,169.62 1175.5,223 C1202.12,244.36 1219.78,279.064 1230.42,306.57 " fill="none" id="FormBody-stream_for" style="stroke: #A80036; stroke-width: 1.0; stroke-dasharray: 7.0,7.0;"/><polygon fill="none" points="1237.02,304.257,1237.08,325.446,1223.82,308.917,1237.02,304.257" style="stroke: #A80036; stroke-width: 1.0;"/><text fill="#000000" font-family="sans-serif" font-size="13" lengthAdjust="spacingAndGlyphs" textLength="48" x="1130.5" y="189.0669">internal</text><!--link FormBody to Envelope--><path d="M392.797,104.69 C249.325,125.74 96.7452,162.06 63.5,223 C-35.3229,404.159 15.1435,491.262 80.5,687 C86.0415,703.596 93.3607,720.206 101.6472,736.296 " fill="none" id="FormBody-Envelope" style="stroke: #A80036; stroke-width: 1.0;"/><polygon fill="#FFFFFF" points="107.84,747.913,108.5471,740.7366,102.1947,737.3238,101.4876,744.5002,107.84,747.913" style="stroke: #A80036; stroke-width: 1.0;"/><!--link FormBody to StreamInterface--><path d="M392.796,116.74 C269.555,140.29 143.533,175.18 106.5,223 C26.015,326.933 100.3508,494.579 141.865,570.877 " fill="none" id="FormBody-StreamInterface" style="stroke: #A80036; stroke-width: 1.0;"/><polygon fill="#FFFFFF" points="148.217,582.314,148.8012,575.1266,142.3913,571.823,141.8071,579.0104,148.217,582.314" style="stroke: #A80036; stroke-width: 1.0;"/><!--link FormBody to RequestInterface--><path d="M872.223,146.09 C917.205,166.6 962.655,192.08 1000.5,223 C1029.13,246.39 1052.61,281.359 1068.09,308.447 " fill="none" id="FormBody-RequestInterface" style="stroke: #A80036; stroke-width: 1.0;"/><polygon fill="#FFFFFF" points="1074.43,319.893,1075.0226,312.7063,1068.6166,309.3952,1068.024,316.5819,1074.43,319.893" style="stroke: #A80036; stroke-width: 1.0;"/><!--
@startuml
interface NodeInterface {
    const DISPOSITION_FORMDATA = "form-data";
    const DISPOSITION_ATTACHMENT = "attachment";
    const HEADER_DISPOSITION = "content-disposition";
    const HEADER_CONTENT_TYPE = "content-type";
    const ATTRIB_NAME = "name";
    const ATTRIB_FILENAME = "filename";

    +__toString()
    +add(NodeInterface $node)
    +getName()
    +setContentDisposition(string $disposition)
    +getNested()
}

interface StreamInterface {
==PSR-7==
}
interface RequestInterface {
==PSR-7==
}


abstract class AbstractNode {
    #$name;
    #$contentDisposition = '';
    +__toString()
    +add(NodeInterface $node)
    +getName()
    +setContentDisposition(string $disposition)
    +getNested()
    -getContentDisposition()
}

AbstractNode <|- - NodeInterface
AbstractNode - -o Envelope

class Envelope {
    const TYPE_FORM_DATA = 'multipart/form-data';
    const TYPE_MIXED = 'multipart/mixed';
    const ATTRIB_BOUNDARY = "boundary";

    __construct(string $name, string $type='', $items = [])
    +__toString()
    +add(NodeInterface $node)
    +getName()
    +setContentDisposition(string $disposition)
    +getNested()

    -exists($name)
    -getPrefix()
    -getItems()
    -getItemsAsString()
    -getItemString($item)
    -fixNodeContentDisposition(NodeInterface $node, string $name)
}
Envelope <|- - NodeInterface

class Attachment {
    -$filename = '';
    -$stream;
    -$mime = '';
    -$disposition;

    const DEFAULT_MIME = "application/octet-stream";
    const BINARY_ENCODING = "content-transfer-encoding: binary\\n";

    __construct(string $filename, string $name, StreamInterface $data, string $mime='', string $disposition='')
    +__toString()
    +getNested()
    -headerName()
    -getMime()
    -isBinaryByMime(string $mimeType)
    -contentEncoding()
    -getContents()
    -ifBlank($value, $default)
}
Attachment <|- - AbstractNode
Attachment - -o StreamInterface
class FormInput {
    -$value
    __construct($name, $value)
    +__toString()
    +getNested()
}
FormInput <|- - AbstractNode

annotation stream_for

class FormBody {
    -$state;
    const HTTP_METHOD = "POST";

    __construct(Envelope $initialState)
    +addAttachment(string $name, StreamInterface $value, string $mimeType, string $fileName)
    +addFormInput(string $name, string $value)
    +__toString()
    +submit(RequestInterface $request)
}
FormBody ..|> FormInput : internal
FormBody ..|> Attachment : internal
FormBody ..|> stream_for : internal
FormBody - -o Envelope
FormBody - -o StreamInterface
FormBody - -o RequestInterface
@enduml

PlantUML version 1.2018.01(Sun Jan 28 18:08:22 UTC 2018)
(GPL source distribution)
Java Runtime: Java(TM) SE Runtime Environment
JVM: Java HotSpot(TM) 64-Bit Server VM
Java Version: 1.7.0_25-b15
Operating System: Linux
Default Encoding: UTF-8
Language: en
Country: US
--></g></svg>